<svg width="16" height="16" viewBox="0 0 16 16" fill="none" xmlns="http://www.w3.org/2000/svg">
<path d="M14.7416 2.21368L13.7304 1.19817C12.8034 0.267277 11.3708 0.267277 10.4438 1.19817L8.7584 2.97532L13.0562 7.29125L14.8258 5.5141C15.2472 5.09098 15.5 4.49859 15.5 3.90621C15.5 3.31382 15.163 2.63681 14.7416 2.21368ZM11.2023 7.20665L7.83148 3.82158L1.17416 10.507C0.75281 10.9302 0.5 11.5226 0.5 12.1996V14.823C0.5 15.1615 0.75281 15.5 1.17416 15.5H3.87078C4.46068 15.5 5.05057 15.2461 5.55618 14.823L12.2135 8.13755L11.2023 7.20665Z" fill="#8995A3"/>
</svg>
