<svg width="24" height="24" viewBox="0 0 24 24" fill="none" xmlns="http://www.w3.org/2000/svg">
<path fill-rule="evenodd" clip-rule="evenodd" d="M7.28571 17.8333C7.28571 18.75 7.99286 19.5 8.85714 19.5H15.1429C16.0071 19.5 16.7143 18.75 16.7143 17.8333V9.5C16.7143 8.58333 16.0071 7.83333 15.1429 7.83333H8.85714C7.99286 7.83333 7.28571 8.58333 7.28571 9.5V17.8333ZM16.7143 5.33333H14.75L14.1921 4.74167C14.0507 4.59167 13.8464 4.5 13.6421 4.5H10.3579C10.1536 4.5 9.94929 4.59167 9.80786 4.74167L9.25 5.33333H7.28571C6.85357 5.33333 6.5 5.70833 6.5 6.16667C6.5 6.625 6.85357 7 7.28571 7H16.7143C17.1464 7 17.5 6.625 17.5 6.16667C17.5 5.70833 17.1464 5.33333 16.7143 5.33333Z" fill="#8995A3"/>
</svg>
